<svg version="1.1" baseProfile="full" width = "300" height = "200" xmlns ="http://www.w3.org/2000/svg" ><path stroke="red" d="M 2 526M 1002 5889M 2002 10438M 3002 28370M 4002 19745M 5002 41678M 6002 43147M 7002 11646M 8002 125523M 9002 14986M 10002 16520M 11002 17308M 12002 20992M 13002 21469M 14002 23127M 15002 28949M 16002 31996M 17002 24312M 18002 36371M 19002 31776"/><path stroke="blue" d="M 2 955M 1002 9058M 2002 14687M 3002 11566M 4002 33326M 5002 18537M 6002 19408M 7002 7695M 8002 41231M 9002 67282M 10002 31399M 11002 25590M 12002 21800M 13002 41673M 14002 24791M 15002 17617M 16002 20029M 17002 19465M 18002 24428M 19002 40491"/></svg>